<?xml version="1.0" encoding="utf-8"?>
<!-- Generator: Adobe Illustrator 25.4.1, SVG Export Plug-In . SVG Version: 6.00 Build 0)  -->
<svg version="1.1" id="Layer_1" xmlns="http://www.w3.org/2000/svg" xmlns:xlink="http://www.w3.org/1999/xlink" x="0px" y="0px"
	 viewBox="0 0 24 24" style="enable-background:new 0 0 24 24;" xml:space="preserve">
<style type="text/css">
	.st0{fill:#B9C7FF;}
</style>
<path class="st0" d="M12,22c-1.4,0-2.7-0.3-3.9-0.8S5.8,20,4.9,19.1c-0.9-0.9-1.6-2-2.1-3.2S2,13.4,2,12s0.3-2.7,0.8-3.9
	S4,5.8,4.9,4.9s2-1.6,3.2-2.1S10.6,2,12,2c2.4,0,4.6,0.8,6.4,2.3c1.8,1.5,3,3.4,3.4,5.7h-2.1c-0.3-1.2-0.9-2.3-1.7-3.3
	s-1.8-1.7-3-2.2V5c0,0.6-0.2,1-0.6,1.4C14,6.8,13.6,7,13,7h-2v2c0,0.3-0.1,0.5-0.3,0.7C10.5,9.9,10.3,10,10,10H8v2h2v3H9l-4.8-4.8
	c-0.1,0.3-0.1,0.6-0.1,0.9C4,11.4,4,11.7,4,12c0,2.2,0.8,4.1,2.3,5.6C7.8,19.2,9.7,20,12,20V22z M21.1,21.5l-3.2-3.2
	c-0.3,0.2-0.7,0.4-1.1,0.5c-0.4,0.1-0.8,0.2-1.3,0.2c-1.2,0-2.3-0.4-3.2-1.3S11,15.8,11,14.5s0.4-2.3,1.3-3.2s1.9-1.3,3.2-1.3
	s2.3,0.4,3.2,1.3s1.3,1.9,1.3,3.2c0,0.4-0.1,0.9-0.2,1.3c-0.1,0.4-0.3,0.8-0.5,1.1l3.2,3.2L21.1,21.5z M15.5,17
	c0.7,0,1.3-0.2,1.8-0.7c0.5-0.5,0.7-1.1,0.7-1.8s-0.2-1.3-0.7-1.8c-0.5-0.5-1.1-0.7-1.8-0.7c-0.7,0-1.3,0.2-1.8,0.7S13,13.8,13,14.5
	s0.2,1.3,0.7,1.8S14.8,17,15.5,17z"/>
</svg>
